#N canvas 125 92 450 300 10;
#X declare -lib mrpeach;
#X obj 58 30 import mrpeach;
#X obj 61 108 unpackOSC;
#X obj 50 60 udpreceive 9001;
#X obj 41 232 ctlout 1 1;
#X floatatom 121 199 5 0 0 0 - - -;
#X floatatom 176 164 5 0 0 0 - - -;
#X obj 16 144 unpack s f f;
#X connect 1 0 6 0;
#X connect 2 0 1 0;
#X connect 6 1 3 0;
#X connect 6 1 4 0;
#X connect 6 2 5 0;
