#N canvas 103 319 450 300 10;
#X declare -lib mrpeach;
#X obj 104 -6 import mrpeach;
#X obj 201 53 unpackOSC;
#X obj 188 24 udpreceive 9001;
#X obj 41 232 ctlout 1 1;
#X floatatom 70 186 5 0 0 0 - - -;
#X floatatom 111 167 5 0 0 0 - - -;
#X obj 16 144 unpack s f f;
#X obj 213 130 routeOSC /mouseX /mouseY;
#X msg 216 175;
#X msg 258 178;
#X msg 302 175;
#X msg 12 190;
#X obj 214 85 routeOSC /test;
#X connect 1 0 6 0;
#X connect 1 0 12 0;
#X connect 2 0 1 0;
#X connect 6 0 11 0;
#X connect 6 1 3 0;
#X connect 6 1 4 0;
#X connect 6 2 5 0;
#X connect 7 0 8 0;
#X connect 7 1 9 0;
#X connect 7 2 10 0;
#X connect 12 0 7 0;
