#N canvas 3 25 1280 752 10;
#X declare -lib mrpeach;
#X obj -79 9 import mrpeach;
#X obj -63 68 unpackOSC;
#X obj -76 39 udpreceive 9001;
#X obj 113 51 routeOSC /amarelo /vermelho /verde /azul;
#X floatatom 340 93 5 0 0 0 - - -;
#X floatatom 383 89 5 0 0 0 - - -;
#X floatatom 437 86 5 0 0 0 - - -;
#X floatatom 506 82 5 0 0 0 - - -;
#X obj 324 120 ctlout 1 1;
#X obj 399 121 ctlout 2 2;
#X obj 478 124 ctlout 3 3;
#X obj 561 122 ctlout 4 4;
#X floatatom -69 297 5 0 0 0 - - -;
#X floatatom 41 298 5 0 0 0 - - -;
#X obj -72 271 routeOSC /amarelo/mouseX /amarelo/mouseY;
#X floatatom 193 297 5 0 0 0 - - -;
#X floatatom 303 298 5 0 0 0 - - -;
#X floatatom 465 300 5 0 0 0 - - -;
#X floatatom 558 301 5 0 0 0 - - -;
#X floatatom 708 304 5 0 0 0 - - -;
#X floatatom 818 305 5 0 0 0 - - -;
#X obj 190 271 routeOSC /vermelho/mouseX /vermelho/mouseY;
#X obj 462 272 routeOSC /verde/mouseX /verde/mouseY;
#X obj 705 278 routeOSC /azul/mouseX /azul/mouseY;
#X obj -69 346 ctlout 5 5;
#X obj 11 346 ctlout 6 6;
#X obj 172 342 ctlout 7 7;
#X obj 263 341 ctlout 8 8;
#X obj 467 339 ctlout 9 9;
#X obj 539 341 ctlout 10 10;
#X obj 704 335 ctlout 11 11;
#X obj 798 335 ctlout 12 12;
#X connect 1 0 3 0;
#X connect 1 0 14 0;
#X connect 1 0 21 0;
#X connect 1 0 22 0;
#X connect 1 0 23 0;
#X connect 2 0 1 0;
#X connect 3 0 4 0;
#X connect 3 1 5 0;
#X connect 3 2 6 0;
#X connect 3 3 7 0;
#X connect 4 0 8 0;
#X connect 5 0 9 0;
#X connect 6 0 10 0;
#X connect 7 0 11 0;
#X connect 12 0 24 0;
#X connect 13 0 25 0;
#X connect 14 0 12 0;
#X connect 14 1 13 0;
#X connect 15 0 26 0;
#X connect 16 0 27 0;
#X connect 17 0 28 0;
#X connect 18 0 29 0;
#X connect 19 0 30 0;
#X connect 20 0 31 0;
#X connect 21 0 15 0;
#X connect 21 1 16 0;
#X connect 22 0 17 0;
#X connect 22 1 18 0;
#X connect 23 0 19 0;
#X connect 23 1 20 0;
