#N canvas 0 22 1280 752 10;
#X declare -lib mrpeach;
#X obj -79 9 import mrpeach;
#X obj -63 68 unpackOSC;
#X obj -76 39 udpreceive 9001;
#X obj -83 199 ctlout 1 1;
#X obj -67 149 routeOSC /mouseX /mouseY;
#X floatatom 1 174 5 0 0 0 - - -;
#X floatatom -68 174 5 0 0 0 - - -;
#X obj -4 199 ctlout 2 2;
#X obj 16 96 routeOSC /amarelo /vermelho /verde /azul;
#X floatatom 122 140 5 0 0 0 - - -;
#X floatatom 165 136 5 0 0 0 - - -;
#X floatatom 236 131 5 0 0 0 - - -;
#X floatatom 288 129 5 0 0 0 - - -;
#X connect 1 0 8 0;
#X connect 2 0 1 0;
#X connect 4 0 6 0;
#X connect 4 1 5 0;
#X connect 5 0 7 0;
#X connect 6 0 3 0;
#X connect 8 0 9 0;
#X connect 8 0 4 0;
#X connect 8 1 10 0;
#X connect 8 1 4 0;
#X connect 8 2 11 0;
#X connect 8 2 4 0;
#X connect 8 3 12 0;
#X connect 8 3 4 0;
