#N canvas 36 129 518 545 10;
#X obj 33 201 inlet;
#X obj 178 198 inlet;
#X obj 250 196 inlet;
#X obj 99 197 inlet;
#X floatatom 74 277 5 0 0 0 - - -;
#X obj 152 317 -;
#X obj 243 320 -;
#X floatatom 272 280 5 0 0 0 - - -;
#X obj 118 356 *;
#X obj 144 387 /;
#X obj 184 418 +;
#X obj 68 329 -;
#X floatatom 34 279 5 0 0 0 - - -;
#X floatatom 140 276 5 0 0 0 - - -;
#X floatatom 183 277 5 0 0 0 - - -;
#X floatatom 231 278 5 0 0 0 - - -;
#X obj 180 446 outlet;
#X text 41 4 Esse patch eh o equivalente a expressao abaixo. Por motivos
de problemas de compilaçao na libpd com o objeto expr que eh um objeto
external \, adotei essa alternativa expr ($f1-$f2) * ($f5-$f4) / ($f3-$f2)
+ $f4;
#X obj 327 202 loadbang;
#X obj 290 237 bng 15 250 50 0 empty empty empty 17 7 0 10 -262144
-1 -1;
#X obj 311 236 bng 15 250 50 0 empty empty empty 17 7 0 10 -262144
-1 -1;
#X obj 330 237 bng 15 250 50 0 empty empty empty 17 7 0 10 -262144
-1 -1;
#X text 306 271 range1_min: sempre zero;
#X text 20 170 valor inlet 1;
#X text 85 148 range1_max inlet 2;
#X text 158 168 range2_min inlet 3;
#X text 275 178 range2_max inlet 4;
#X text 61 238 range1_min: sempre zero;
#X connect 0 0 12 0;
#X connect 1 0 14 0;
#X connect 2 0 13 0;
#X connect 3 0 15 0;
#X connect 4 0 11 1;
#X connect 5 0 8 1;
#X connect 6 0 9 1;
#X connect 7 0 6 1;
#X connect 8 0 9 0;
#X connect 9 0 10 0;
#X connect 10 0 16 0;
#X connect 11 0 8 0;
#X connect 12 0 11 0;
#X connect 13 0 5 0;
#X connect 14 0 5 1;
#X connect 14 0 10 1;
#X connect 15 0 6 0;
#X connect 18 0 19 0;
#X connect 18 0 20 0;
#X connect 18 0 21 0;
#X connect 19 0 12 0;
#X connect 19 0 4 0;
#X connect 20 0 13 0;
#X connect 20 0 14 0;
#X connect 21 0 15 0;
#X connect 21 0 7 0;
