#N canvas 1366 54 1024 714 10;
#X obj 64 409 tremolo;
#X obj -9 145 r x_amarelo;
#X obj 46 265 r y_amarelo;
#X obj 459 128 r trigger_vermelho;
#X obj 284 137 r x_vermelho;
#X obj 335 261 r y_vermelho;
#X obj 678 162 r trigger_verde;
#X obj 539 173 r x_verde;
#X obj 581 291 r y_verde;
#X msg 115 203 25;
#X msg 137 339 0;
#X msg 170 341 0.5;
#X msg 374 208 0;
#X msg 410 208 20;
#X msg 422 322 0.5;
#X msg 453 321 4;
#X msg 627 233 0;
#X msg 661 234 40;
#X msg 663 348 0;
#X msg 693 348 1;
#X obj 15 167 r x_max;
#X obj 78 290 r y_max;
#X msg 80 203 0.5;
#X floatatom 2 204 5 0 0 0 - - -;
#X floatatom 41 204 5 0 0 0 - - -;
#X obj 105 164 bng 15 250 50 0 empty empty empty 17 7 0 10 -262144
-1 -1;
#X obj 154 134 r trigger_amarelo;
#X floatatom 97 341 5 0 0 0 - - -;
#X floatatom 60 339 5 0 0 0 - - -;
#X obj 148 287 bng 15 250 50 0 empty empty empty 17 7 0 10 -262144
-1 -1;
#X obj 333 164 r x_max;
#X floatatom 292 208 5 0 0 0 - - -;
#X floatatom 332 207 5 0 0 0 - - -;
#X obj 416 171 bng 15 250 50 0 empty empty empty 17 7 0 10 -262144
-1 -1;
#X obj 360 285 r y_max;
#X floatatom 338 321 5 0 0 0 - - -;
#X floatatom 382 322 5 0 0 0 - - -;
#X obj 438 279 bng 15 250 50 0 empty empty empty 17 7 0 10 -262144
-1 -1;
#X obj 352 385 wah_wah;
#X floatatom 542 234 5 0 0 0 - - -;
#X floatatom 585 233 5 0 0 0 - - -;
#X obj 559 198 r x_max;
#X obj 642 196 bng 15 250 50 0 empty empty empty 17 7 0 10 -262144
-1 -1;
#X obj 543 267 meu_map;
#X floatatom 622 350 5 0 0 0 - - -;
#X floatatom 584 350 5 0 0 0 - - -;
#X obj 604 312 r y_max;
#X obj 695 301 bng 15 250 50 0 empty empty empty 17 7 0 10 -262144
-1 -1;
#X obj 581 405 step_vibrato;
#X msg 879 184 0;
#X msg 915 299 0;
#X floatatom 794 185 5 0 0 0 - - -;
#X floatatom 837 184 5 0 0 0 - - -;
#X obj 811 149 r x_max;
#X obj 894 147 bng 15 250 50 0 empty empty empty 17 7 0 10 -262144
-1 -1;
#X floatatom 874 301 5 0 0 0 - - -;
#X floatatom 836 301 5 0 0 0 - - -;
#X obj 856 263 r y_max;
#X obj 959 265 bng 15 250 50 0 empty empty empty 17 7 0 10 -262144
-1 -1;
#X obj 791 124 r x_azul;
#X obj 930 113 r trigger_azul;
#X obj 833 242 r y_azul;
#X obj 811 373 simple_delay;
#X obj 98 373 meu_map;
#X obj 25 234 meu_map;
#X obj 292 241 meu_map;
#X obj 390 354 meu_map;
#X obj 627 377 meu_map;
#X obj 795 218 meu_map;
#X obj 879 328 meu_map;
#X msg 945 299 0.6;
#X msg 913 185 500;
#X connect 1 0 23 0;
#X connect 2 0 28 0;
#X connect 3 0 33 0;
#X connect 3 0 37 0;
#X connect 4 0 31 0;
#X connect 5 0 35 0;
#X connect 6 0 42 0;
#X connect 6 0 47 0;
#X connect 7 0 39 0;
#X connect 8 0 45 0;
#X connect 9 0 64 3;
#X connect 10 0 63 2;
#X connect 11 0 63 3;
#X connect 12 0 65 2;
#X connect 13 0 65 3;
#X connect 14 0 66 2;
#X connect 15 0 66 3;
#X connect 16 0 43 2;
#X connect 17 0 43 3;
#X connect 18 0 67 2;
#X connect 19 0 67 3;
#X connect 20 0 24 0;
#X connect 21 0 27 0;
#X connect 22 0 64 2;
#X connect 23 0 64 0;
#X connect 24 0 64 1;
#X connect 25 0 23 0;
#X connect 25 0 24 0;
#X connect 25 0 22 0;
#X connect 25 0 9 0;
#X connect 26 0 25 0;
#X connect 26 0 29 0;
#X connect 27 0 63 1;
#X connect 28 0 63 0;
#X connect 29 0 28 0;
#X connect 29 0 27 0;
#X connect 29 0 10 0;
#X connect 29 0 11 0;
#X connect 30 0 32 0;
#X connect 31 0 65 0;
#X connect 32 0 65 1;
#X connect 33 0 31 0;
#X connect 33 0 32 0;
#X connect 33 0 12 0;
#X connect 33 0 13 0;
#X connect 34 0 36 0;
#X connect 35 0 66 0;
#X connect 36 0 66 1;
#X connect 37 0 35 0;
#X connect 37 0 36 0;
#X connect 37 0 14 0;
#X connect 37 0 15 0;
#X connect 39 0 43 0;
#X connect 40 0 43 1;
#X connect 41 0 40 0;
#X connect 42 0 39 0;
#X connect 42 0 40 0;
#X connect 42 0 16 0;
#X connect 42 0 17 0;
#X connect 43 0 48 0;
#X connect 44 0 67 1;
#X connect 45 0 67 0;
#X connect 46 0 44 0;
#X connect 47 0 45 0;
#X connect 47 0 44 0;
#X connect 47 0 18 0;
#X connect 47 0 19 0;
#X connect 49 0 68 2;
#X connect 50 0 69 2;
#X connect 51 0 68 0;
#X connect 52 0 68 1;
#X connect 53 0 52 0;
#X connect 54 0 51 0;
#X connect 54 0 52 0;
#X connect 54 0 49 0;
#X connect 54 0 71 0;
#X connect 55 0 69 1;
#X connect 56 0 69 0;
#X connect 57 0 55 0;
#X connect 58 0 56 0;
#X connect 58 0 55 0;
#X connect 58 0 50 0;
#X connect 58 0 70 0;
#X connect 59 0 51 0;
#X connect 60 0 54 0;
#X connect 60 0 58 0;
#X connect 61 0 56 0;
#X connect 63 0 0 1;
#X connect 64 0 0 0;
#X connect 65 0 38 0;
#X connect 66 0 38 1;
#X connect 67 0 48 1;
#X connect 68 0 62 0;
#X connect 69 0 62 1;
#X connect 70 0 69 3;
#X connect 71 0 68 3;
