#N canvas 1482 286 450 300 10;
#X obj 92 22 adc~;
#X obj 94 71 delwrite~ delayname 500;
#X obj 95 157 delread~ delayname 150;
#X obj 90 255 dac~;
#X obj 59 95 inlet;
#X obj 180 193 r trigger_azul;
#X obj 153 215 tgl 15 0 empty empty empty 17 7 0 10 -262144 -1 -1 0
1;
#X obj 99 212 *~ 0;
#X obj 255 85 inlet;
#X obj 194 117 *~;
#X connect 0 0 1 0;
#X connect 2 0 7 0;
#X connect 2 0 9 0;
#X connect 4 0 2 0;
#X connect 5 0 6 0;
#X connect 6 0 7 1;
#X connect 7 0 3 0;
#X connect 7 0 3 1;
#X connect 8 0 9 1;
#X connect 9 0 1 0;
